<?xml version="1.0" encoding="utf-8"?>
<!-- Generator: Avocode 2.4.3-3630f5a - http://avocode.com -->
<svg height="35" width="43" xmlns:xlink="http://www.w3.org/1999/xlink" xmlns="http://www.w3.org/2000/svg" viewBox="0 0 43 35">
    <path fill="#ffffff" fill-rule="evenodd" d="M 12.97 30.98 C 11.25 30.98 9.58 31.02 7.91 30.97 C 3.86 30.84 0.78 27.86 0.72 23.82 C 0.63 18.45 0.62 13.08 0.72 7.72 C 0.8 3.95 3.62 0.86 7.37 0.75 C 14.72 0.55 22.09 0.65 29.45 0.64 C 30.96 0.64 31.44 1.36 30.78 2.77 C 30.57 3.22 30.42 3.7 30.13 4.44 C 31.79 4.44 33.24 4.41 34.69 4.45 C 39.55 4.57 42.54 7.5 42.61 12.32 C 42.67 17.25 42.68 22.18 42.61 27.1 C 42.54 31.95 39.51 34.89 34.66 34.9 C 28.18 34.93 21.71 34.91 15.23 34.91 C 11.89 34.91 11.89 34.9 12.96 31.82 C 13.02 31.63 12.97 31.4 12.97 30.98 Z M 20.69 23.36 C 21.58 23.36 22.22 23.36 22.87 23.36 C 24.41 23.35 25.96 23.44 27.49 23.32 C 29.41 23.16 30.61 22.07 30.8 20.11 C 30.98 18.19 30.15 16.77 28.25 16.29 C 27.14 16 25.93 16.03 24.77 16.02 C 20.97 15.99 20.97 16.01 22.44 12.68 C 22.48 12.59 22.38 12.43 22.34 12.27 C 20.02 12.27 17.67 12.09 15.37 12.32 C 13.46 12.51 12.24 14.32 12.4 16.08 C 12.57 17.89 14.01 19.27 15.91 19.39 C 16.72 19.45 17.53 19.42 18.34 19.42 C 22.37 19.42 22.37 19.42 20.69 23.36 Z" />
</svg>