<?xml version="1.0" encoding="utf-8"?>
<!-- Generator: Avocode 2.4.3-3630f5a - http://avocode.com -->
<svg height="60px" width="61px" xmlns:xlink="http://www.w3.org/1999/xlink" xmlns="http://www.w3.org/2000/svg" viewBox="0 -0.5 61 63">
    <path stroke-linejoin="miter" stroke-linecap="butt" stroke-width="2" stroke="#ffffff" fill="none" fill-rule="evenodd" d="M 30.5 0.59 C 47.29 0.59 60.91 14.21 60.91 31 C 60.91 47.79 47.29 61.41 30.5 61.41 C 13.71 61.41 0.09 47.79 0.09 31 C 0.09 14.21 13.71 0.59 30.5 0.59 Z" />
    <path fill="#ffffff" fill-rule="evenodd" d="M 45.34 30.6 C 45.34 30.6 23.82 18.21 23.82 18.21 C 22.93 17.7 21.83 18.34 21.83 19.36 C 21.83 19.36 21.83 44.16 21.83 44.16 C 21.83 45.17 22.93 45.81 23.82 45.31 C 23.82 45.31 45.34 32.92 45.34 32.92 C 46.23 32.39 46.23 31.11 45.34 30.6 Z" />
</svg>