<?xml version="1.0" encoding="utf-8"?>
<!-- Generator: Avocode 2.4.3-3630f5a - http://avocode.com -->
<svg height="19" width="20" xmlns:xlink="http://www.w3.org/1999/xlink" xmlns="http://www.w3.org/2000/svg" viewBox="0 0 20 19">
    <path stroke-width="1" stroke="#ffffff" fill="#b0bec5" fill-rule="evenodd" d="M 8.69 1.47 C 8.69 1.47 8.69 4.63 8.69 4.63 C 8.69 5.06 8.34 5.41 7.91 5.41 C 6.38 5.41 5.55 6.98 5.44 10.08 C 5.44 10.08 7.91 10.08 7.91 10.08 C 8.34 10.08 8.69 10.43 8.69 10.85 C 8.69 10.85 8.69 17.53 8.69 17.53 C 8.69 17.96 8.34 18.31 7.91 18.31 C 7.91 18.31 1.31 18.31 1.31 18.31 C 0.88 18.31 0.54 17.96 0.54 17.53 C 0.54 17.53 0.54 10.85 0.54 10.85 C 0.54 9.37 0.69 8.01 0.98 6.8 C 1.28 5.57 1.75 4.49 2.36 3.59 C 2.99 2.68 3.77 1.95 4.7 1.45 C 5.63 0.95 6.71 0.69 7.91 0.69 C 8.34 0.69 8.69 1.04 8.69 1.47 Z M 18.69 5.41 C 19.12 5.41 19.46 5.06 19.46 4.63 C 19.46 4.63 19.46 1.47 19.46 1.47 C 19.46 1.04 19.12 0.69 18.69 0.69 C 17.49 0.69 16.4 0.95 15.48 1.45 C 14.55 1.95 13.76 2.68 13.13 3.59 C 12.52 4.49 12.06 5.57 11.76 6.8 C 11.46 8.01 11.32 9.37 11.32 10.85 C 11.32 10.85 11.32 17.53 11.32 17.53 C 11.32 17.96 11.66 18.31 12.09 18.31 C 12.09 18.31 18.69 18.31 18.69 18.31 C 19.12 18.31 19.46 17.96 19.46 17.53 C 19.46 17.53 19.46 10.85 19.46 10.85 C 19.46 10.43 19.12 10.08 18.69 10.08 C 18.69 10.08 16.25 10.08 16.25 10.08 C 16.36 6.98 17.18 5.41 18.69 5.41 Z" />
</svg>